<svg width="120" height="120" viewBox="0 0 120 120" fill="none" xmlns="http://www.w3.org/2000/svg">
<path d="M59.8872 103.041C32.8989 103.041 11.0205 83.8916 11.0205 60.2703C11.0205 36.6489 32.8989 17.5 59.8872 17.5C86.8755 17.5 108.754 36.6489 108.754 60.2703C108.754 83.8916 86.8755 103.041 59.8872 103.041Z" fill="#C0DFCF"/>
<path d="M13.7163 17.7397C14.6668 15.8508 16.8158 14.5273 19.3285 14.5273C22.6962 14.5273 25.1316 16.9734 25.4408 19.8812C25.4408 19.8812 25.6045 20.6016 25.2452 21.9072C24.7451 23.6784 23.5762 25.2428 22.0186 26.453L13.7163 32.7062L5.55749 26.453C3.9953 25.2428 2.83337 23.6784 2.33321 21.9072C1.97834 20.6016 2.13529 19.8812 2.13529 19.8812C2.44218 16.9734 4.87523 14.5273 8.25669 14.5273C10.7603 14.5273 12.7705 15.8508 13.7163 17.7397Z" fill="#FFA8A6"/>
<path d="M13.7167 34.5422C14.2034 34.5422 14.6912 34.3931 15.0833 34.0984L23.3856 27.8451C25.3569 26.3126 26.6953 24.4199 27.2795 22.348C27.7161 20.7618 27.5559 19.7867 27.4968 19.524C27.1023 15.7106 23.5777 12.6934 19.3289 12.6934C17.2185 12.6934 15.2347 13.4038 13.7407 14.616C12.2819 13.394 10.3525 12.6934 8.25706 12.6934C4.00031 12.6934 0.471004 15.7127 0.0493126 19.7131C0.0209045 19.7985 -0.130449 20.7659 0.294968 22.3321C0.886175 24.426 2.22437 26.3205 4.16844 27.8272L12.3366 34.0865C12.731 34.389 13.2245 34.5422 13.7167 34.5422ZM19.3289 16.3634C21.7142 16.3634 23.1593 18.2184 23.3549 20.0514C23.3742 20.1847 23.4377 20.6444 23.2082 21.4784C22.8307 22.8157 21.937 24.0657 20.6272 25.0826L13.7293 30.2791L6.93819 25.0747C5.64215 24.0695 4.74963 22.8198 4.36752 21.4684C4.14236 20.6385 4.20499 20.1726 4.20499 20.1688C4.41642 18.2184 5.86382 16.3634 8.25706 16.3634C9.81133 16.3634 11.1346 17.1535 11.7975 18.477C12.1308 19.1439 12.8833 19.5737 13.7144 19.5757C13.7155 19.5757 13.7155 19.5757 13.7155 19.5757C14.548 19.5757 15.2994 19.1457 15.6349 18.4791C16.2818 17.1933 17.7324 16.3634 19.3289 16.3634Z" fill="#43525B"/>
<path d="M55.623 44.7347C54.1654 44.7347 52.5806 44.4223 50.9092 43.8052L49.9473 43.451L49.6267 42.5832C49.2241 42.1892 45.7111 38.7322 51.7915 31.9912L51.9142 31.8539L52.0644 31.7383C53.6014 30.5422 67.0995 19.6696 68.1229 6.82061L68.6641 0L72.3864 6.0105C72.507 6.20553 84.5452 25.7299 82.3554 30.4387L81.8166 31.5991L79.9976 31.7027C79.6679 31.7124 72.9939 32.0071 60.9285 43.0053C60.5916 43.3057 58.8315 44.7347 55.623 44.7347Z" fill="#CCCCCC"/>
<path d="M93.0907 117.87C91.7809 117.536 90.3847 116.182 89.7663 115.434C78.4262 103.2 73.1575 93.2346 72.5936 92.1382C69.8217 85.8788 65.8265 85.3214 65.0532 85.2717L64.8166 85.2458C37.4341 80.933 33.9071 59.906 33.7706 59.0126C32.0129 49.2503 25.1729 45.4411 19.7451 43.9723L15.752 42.8895L18.9607 40.5449C21.4256 38.7399 25.2639 36.4192 27.8243 35.4778C28.386 35.2708 29.0615 35.1674 29.8345 35.1674C36.3471 35.1674 48.2216 42.5353 48.7241 42.8497C51.0684 44.0717 53.4402 44.7345 55.6232 44.7345C59.0773 44.7324 60.826 43.1045 60.8963 43.0327C71.3406 33.5154 77.819 31.9869 79.5563 31.7442L80.0611 31.6745L80.5501 31.7998C80.6933 31.788 80.8365 31.7401 80.9776 31.6924L81.28 31.593L81.5983 31.5689C92.3768 30.7729 99.9421 27.3458 103.492 25.3754L110.887 21.2715L106.707 28.0045C101.579 36.272 84.9819 55.7862 71.7341 70.4226C76.0295 72.0705 78.8309 79.305 78.9492 79.6115L79.0037 79.7569L79.0333 79.904C79.8473 84.0518 93.7592 89.8872 113.652 94.4309L113.865 94.4807L114.061 94.5642C115.407 95.1293 116.389 95.7065 116.981 96.2798L118.4 97.653L116.935 98.9906C116.085 99.7628 114.404 100.483 113.201 100.826C114.038 101.626 114.643 102.35 114.989 102.973L116.132 105.053L113.615 105.737C112.872 105.94 111.873 106.048 110.732 106.048C109.781 106.048 109.045 105.972 108.99 105.968C109.349 106.786 109.545 107.433 109.649 107.927L112.296 109.284L108.499 110.916C108.058 111.103 107.498 111.201 106.837 111.201C105.388 111.201 103.892 110.733 103.828 110.711C104.069 113.245 103.483 114.122 103.023 114.562L102.346 115.211L101.304 115.231H100.276L100.113 115.072C98.5936 114.705 97.1656 113.806 97.0927 113.758C96.6789 115.458 96.1012 116.664 95.36 117.337L94.4072 118.204L93.0907 117.87Z" fill="white"/>
<path d="M49.7029 44.648C50.3465 44.648 50.9878 44.4153 51.447 43.9614C52.2997 43.1175 52.21 41.8299 51.2481 41.0836C51.1913 41.0298 48.7047 38.7052 53.6176 33.258C55.415 31.8548 69.2475 20.6437 70.4287 7.12991C76.9038 17.6106 81.3357 28.0912 80.0089 29.9063C78.7412 30.0934 77.9589 31.0945 78.1738 32.2052C78.3887 33.3136 79.6643 34.0003 80.9298 33.8232C82.3998 33.6043 83.5664 32.8359 84.2144 31.6598C87.2501 26.1468 77.0549 9.1879 73.8588 4.12283C73.1267 2.94649 71.3915 0.182136 68.6993 0.582197C66.9199 0.858755 66.0502 2.35139 65.8285 3.65694C65.8045 3.79838 65.7978 3.94369 65.808 4.08696C66.8051 17.6703 50.5603 30.1849 50.3966 30.3104C50.2909 30.3899 50.1942 30.4796 50.1067 30.5752C42.1262 39.2883 47.91 43.9415 48.1601 44.1365C48.6034 44.4789 49.155 44.648 49.7029 44.648Z" fill="#43525B"/>
<path d="M93.8001 120C95.3066 120 97.1906 119.371 98.4764 116.735C99.3359 117.034 100.312 117.263 101.287 117.263C102.659 117.263 103.842 116.825 104.709 115.995C105.434 115.3 105.893 114.379 106.088 113.211C106.334 113.229 106.585 113.239 106.838 113.239C109.322 113.239 110.602 112.271 111.239 111.459C111.952 110.55 112.212 109.419 112.02 108.042C114.812 107.851 116.601 107.001 117.343 105.514C118.024 104.149 117.545 102.758 116.81 101.627C118.345 100.819 119.864 99.5856 119.991 97.8421C120.212 94.8289 116.17 93.1748 114.842 92.6315C114.713 92.5799 114.579 92.5379 114.442 92.5061C98.7915 88.9476 81.7505 82.8973 81.3277 79.5597C81.3095 79.4244 81.2776 79.2909 81.2299 79.1596C80.9616 78.4333 78.856 72.9521 75.105 69.9766C113.194 27.7457 111.112 23.9701 110.421 22.7202C109.921 21.8147 108.906 21.2734 107.704 21.2734C106.914 21.2734 106.042 21.5023 104.959 21.9939C104.806 22.0636 104.663 22.1471 104.531 22.2445C104.443 22.3083 95.1643 28.9677 79.8235 29.6682C79.08 29.6882 71.7487 30.1997 59.276 41.57C59.1999 41.6395 57.9982 42.6964 55.6242 42.6964C53.8676 42.6964 51.8984 42.1312 49.7687 41.0146C48.6273 40.2901 37.0097 33.1294 29.8333 33.1294C28.7498 33.1294 27.7709 33.2865 26.9215 33.5989C23.4539 34.8747 15.4221 39.6632 13.9272 42.4278C13.5929 43.0447 13.635 43.7671 14.0374 44.3502C14.44 44.9353 15.1495 45.3056 15.9293 45.3354C16.4558 45.3592 29.0886 46.0997 31.4774 59.3746C31.5023 59.5517 35.2475 82.7382 64.5517 87.2738C64.6858 87.2958 64.8211 87.3058 64.9576 87.3058C65.0156 87.3117 68.0694 87.5605 70.3695 92.7629C70.6207 93.2724 75.8177 103.62 88.0321 116.805C88.3882 117.251 90.7677 120 93.8001 120ZM97.0814 111.714C96.7994 111.714 96.5163 111.758 96.2469 111.849C95.5057 112.098 94.9611 112.661 94.8006 113.34C94.3822 115.121 93.8911 115.728 93.709 115.901C93.2382 115.762 92.2856 115.016 91.741 114.343C79.8323 101.482 74.7275 91.316 74.6775 91.2145C71.5393 84.1153 66.5379 83.3233 65.2247 83.2395C39.378 79.1676 36.1172 59.0005 36.0867 58.7975C34.0616 47.5405 25.7651 43.4945 20.5295 42.0516C22.9034 40.326 26.4644 38.1885 28.727 37.3566C28.9964 37.2569 29.3797 37.2054 29.8333 37.2054C34.6619 37.2054 44.018 42.4117 47.2153 44.4179C50.2372 46.012 53.0138 46.7724 55.6242 46.7724C60.0801 46.7724 62.4381 44.587 62.6926 44.3384C73.7337 34.2757 80.0074 33.7442 80.0689 33.7383C91.8933 33.1989 100.364 29.497 104.559 27.1963C99.7827 34.807 84.5827 52.9482 69.9089 69.1567C69.4597 69.6523 69.2995 70.301 69.4746 70.914C69.6486 71.5291 70.1385 72.0366 70.8003 72.2893C73.3879 73.2804 75.8678 77.9774 76.7387 80.2542C78.244 87.855 104.575 94.4647 113.057 96.403C114.383 96.9604 114.969 97.3864 115.215 97.6132C114.743 98.0151 113.518 98.5963 112.484 98.8849C111.725 99.0979 111.143 99.6353 110.939 100.308C110.737 100.983 110.943 101.701 111.484 102.213C112.301 102.985 112.683 103.502 112.861 103.807C112.472 103.906 111.79 104.008 110.73 104.008C109.928 104.008 109.307 103.948 109.258 103.944C108.451 103.855 107.646 104.157 107.148 104.72C106.649 105.285 106.521 106.036 106.815 106.703C107.552 108.372 107.426 109.031 107.39 109.155C107.375 109.123 107.181 109.163 106.839 109.163C105.798 109.163 104.632 108.798 104.62 108.794C103.872 108.552 103.035 108.661 102.396 109.085C101.762 109.509 101.42 110.19 101.49 110.886C101.679 112.745 101.274 113.241 101.271 113.247C100.471 113.187 99.0436 112.486 98.4603 112.11C98.0545 111.849 97.5702 111.714 97.0814 111.714Z" fill="#43525B"/>
<path d="M31.0968 43.0313C29.8415 43.0313 28.8239 42.1407 28.8239 41.042C28.8239 39.9434 29.8415 39.0527 31.0968 39.0527C32.352 39.0527 33.3696 39.9434 33.3696 41.042C33.3696 42.1407 32.352 43.0313 31.0968 43.0313Z" fill="#43525B"/>
</svg>
