<svg width="98" height="106" viewBox="0 0 98 106" fill="none" xmlns="http://www.w3.org/2000/svg">
<path d="M77.5891 49.6904C71.9219 45.6464 69.2382 38.7507 68.0554 34.3989C59.9542 42.9172 51.4494 48.2625 43.5659 51.5756C33.4107 55.8348 24.2891 56.7379 18.4109 56.7379C15.951 56.7379 14.0606 56.5817 12.895 56.4482C15.9468 75.7045 30.2844 95.9114 46.715 95.9114C64.272 95.9114 79.957 71.7374 81.0599 51.6208C79.7926 51.1027 78.641 50.4441 77.5891 49.6904Z" fill="#FBD0C4"/>
<path d="M32.0776 100.282C19.4032 97.3554 9.31199 94.4246 4.33067 85.7323C-0.63535 77.0783 -0.162398 62.6625 5.82201 40.3847C10.0793 24.5343 17.7746 13.7257 28.698 8.26041C34.1445 5.53122 40.4157 4.14844 47.3318 4.14844C59.7215 4.14844 70.0521 8.61335 70.4869 8.80361C70.7132 8.8919 96.2957 19.5035 92.8966 60.4265C92.8727 60.7388 90.2366 93.0826 65.5523 100.021L64.2993 100.377V91.9694L64.6649 91.6593C76.1165 81.9937 84.1104 64.6066 84.1104 49.385C84.1104 48.8147 83.6667 48.3508 83.1159 48.3508C82.9526 48.3508 82.7923 48.396 82.6354 48.4889L82.2068 48.7445L81.7545 48.5408C80.68 48.0588 79.6658 47.45 78.7385 46.7214C74.9378 43.7297 72.7639 39.0835 71.6048 35.7115C70.5108 32.5137 70.17 30.0311 70.1655 30.0086C70.1429 29.9248 70.1343 29.8886 70.1276 29.8501C70.0855 29.7347 70.0693 29.6986 70.0521 29.6601L69.9459 29.4972L69.8453 29.3818L69.8032 29.35C69.7034 29.2798 69.6742 29.2573 69.646 29.2437L69.4601 29.16L69.2848 29.1215L69.0044 28.0873L69.0953 29.1079L69.1354 29.1032L69.0975 29.1125V29.1215L69.0401 29.1259L68.9958 29.135C68.8648 29.1735 68.8335 29.1825 68.8054 29.1962C68.6895 29.2527 68.658 29.2754 68.6279 29.2935L68.379 29.5176C67.5315 30.5041 66.549 31.5678 65.3456 32.7967C47.7441 50.8605 28.0941 53.5559 17.9455 53.5559C17.2507 53.5559 16.6102 53.5468 16.0302 53.5197C13.5542 53.4314 12.1072 53.2006 12.0943 53.1939L11.6442 53.1575L11.2891 52.7818C11.1874 52.637 11.0467 52.5216 10.8855 52.447L10.1528 52.1279L9.69407 52.7999C9.59545 52.9538 9.48086 53.1892 9.51211 53.497C11.0185 69.9632 20.5991 86.891 32.807 94.6534L33.2842 94.9565V100.562L32.0776 100.282ZM43.3667 30.6944C43.1136 30.6944 42.8765 30.7917 42.6894 30.9727C40.3995 33.2064 37.6593 35.3766 34.5439 37.4224C30.1351 40.3282 24.9634 42.9874 19.1793 45.3386C11.972 48.2671 6.4009 49.6499 6.34793 49.6589C5.81558 49.7947 5.48225 50.3514 5.60658 50.9126C5.71053 51.381 6.10769 51.7138 6.572 51.7138C6.64779 51.7138 6.72226 51.7047 6.79806 51.6867C6.94211 51.6503 7.59237 51.492 8.62582 51.1954L9.78272 50.8742L10.9893 50.4985C18.9887 48.0159 33.9205 42.383 44.0475 32.4913C44.4467 32.0973 44.4695 31.4433 44.0941 31.0202C43.9013 30.8121 43.6437 30.6944 43.3667 30.6944Z" fill="white"/>
<path d="M62.9073 92.1758H33.9387V104.65H62.9073V92.1758Z" fill="#FBD0C4"/>
<path d="M49.1401 81.8169H44.292C43.0681 81.8169 42.0757 80.7806 42.0757 79.4995C42.0757 78.2187 43.0681 77.1821 44.292 77.1821H49.1401C50.3641 77.1821 51.3564 78.2187 51.3564 79.4995C51.3564 80.7806 50.3641 81.8169 49.1401 81.8169Z" fill="#43525B"/>
<path d="M65.5186 105.24H61.0861V91.4077H65.5186V105.24Z" fill="#43525B"/>
<path d="M36.4959 105.242H32.0634V95.728H36.4959V105.242Z" fill="#43525B"/>
<path d="M32.2324 103.405C32.0744 103.405 31.9141 103.387 31.7541 103.351C18.583 100.318 11.9401 95.8393 8.61512 90.0422C3.08949 80.4084 -3.59491 62.7283 2.72924 39.1767C7.25046 22.3439 15.528 10.8181 27.3335 4.92271C47.6056 -5.20219 70.7088 4.95214 71.6806 5.38897C71.869 5.46127 99.7077 16.9398 96.0943 60.3929C96.0717 60.7166 93.257 95.8146 65.9342 103.108C64.7428 103.434 63.5418 102.676 63.2386 101.436C62.9356 100.196 63.651 98.9355 64.837 98.6184C89.0527 92.1553 91.6531 60.3387 91.677 60.0172C95.0045 19.9994 70.2748 9.78598 70.0248 9.68657C69.7155 9.55077 47.6577 -0.108105 29.2185 9.11626C18.6306 14.4164 11.154 24.9533 6.99736 40.4304C1.11025 62.3506 7.15916 77.9073 11.9401 86.2422C17.1651 92.8922 20.124 95.9277 32.7064 98.8245C33.9021 99.1007 34.6574 100.336 34.3946 101.585C34.1672 102.667 33.2497 103.405 32.2324 103.405Z" fill="#43525B"/>
<path d="M46.715 100.307C27.1721 100.307 10.3109 75.6601 8.29249 53.6222C8.17569 52.3481 9.06952 51.2165 10.288 51.0944C11.4979 50.9338 12.5887 51.9068 12.7058 53.1786C14.5422 73.2386 29.477 95.6723 46.715 95.6723C64.8046 95.6723 80.8996 69.7897 80.8996 49.3857C80.8996 48.1049 81.8919 47.0684 83.1159 47.0684C84.3398 47.0684 85.3322 48.1049 85.3322 49.3857C85.3322 72.3084 67.5122 100.307 46.715 100.307Z" fill="#43525B"/>
<path d="M18.4 56.9771C14.4273 56.9771 11.9253 56.5674 11.5703 56.5062C10.3637 56.2958 9.55101 55.1033 9.75025 53.8426C9.94928 52.5799 11.1006 51.7356 12.2965 51.9349C12.6048 51.9915 43.0333 56.8253 67.5391 28.5958C68.3616 27.6452 69.7607 27.5773 70.6698 28.4373C71.5756 29.2973 71.6437 30.7617 70.8201 31.7097C51.5923 53.8586 29.3785 56.9771 18.4 56.9771Z" fill="#43525B"/>
<path d="M6.56975 52.9923C5.56333 52.9923 4.65222 52.2704 4.41397 51.2C4.13605 49.9554 4.87717 48.7084 6.06865 48.4187C6.29493 48.3622 28.8321 42.7543 41.856 30.0381C42.7521 29.1645 44.1534 29.2143 44.989 30.1489C45.8243 31.0835 45.7755 32.5502 44.8817 33.4236C30.9803 46.9975 8.04357 52.6959 7.07395 52.9314C6.90529 52.9742 6.73641 52.9923 6.56975 52.9923Z" fill="#43525B"/>
<path d="M81.7882 52.0078C81.5198 52.0078 81.2459 51.9582 80.9808 51.8472C69.2999 47.0653 67.0739 31.1446 66.9841 30.4702C66.8174 29.2028 67.6625 28.0374 68.8735 27.8608C70.0834 27.6822 71.2046 28.5669 71.3743 29.8343C71.3938 29.9722 73.3515 43.7454 82.5976 47.5338C83.7372 47.9999 84.2988 49.3442 83.8529 50.5346C83.5109 51.4488 82.6745 52.0078 81.7882 52.0078Z" fill="#43525B"/>
<path d="M81.0998 31.6637C79.9409 28.9165 77.3275 26.9951 74.2725 26.9951C70.1808 26.9951 67.2232 30.5502 66.8411 34.7732C66.8411 34.7732 66.6421 35.8211 67.0791 37.7151C67.6906 40.2907 69.1073 42.5626 71.0042 44.3167L81.0998 53.4029L91.0179 44.3167C92.917 42.5626 94.3325 40.2907 94.9387 37.7151C95.366 35.8211 95.1798 34.7732 95.1798 34.7732C94.8055 30.5502 91.8523 26.9951 87.7358 26.9951C84.6915 26.9951 82.2469 28.9165 81.0998 31.6637Z" fill="#FFA8A6"/>
<path d="M81.0998 55.7213C80.5847 55.7213 80.0696 55.5334 79.6541 55.16L69.5585 46.0738C67.2221 43.9147 65.6281 41.2239 64.9278 38.2753C64.4679 36.2791 64.5741 34.9575 64.6421 34.4778C65.1822 28.8857 69.3107 24.6787 74.2725 24.6787C76.862 24.6787 79.2915 25.7649 81.0716 27.607C82.8085 25.7491 85.1644 24.6787 87.7358 24.6787C92.8197 24.6787 96.8788 28.8336 97.3866 34.5591C97.4038 34.6066 97.6051 35.9941 97.0953 38.2479C96.3963 41.2216 94.8033 43.9126 92.4852 46.0557L82.5607 55.1463C82.143 55.5289 81.6215 55.7213 81.0998 55.7213ZM69.0153 35.2224C69.0184 35.2224 68.947 35.9306 69.2338 37.1731C69.7132 39.1918 70.8344 41.0677 72.4727 42.5819L81.0869 50.3352L89.5569 42.575C91.1901 41.0677 92.3088 39.1939 92.7862 37.1618C93.0772 35.8717 92.9917 35.1454 92.9917 35.1385C92.7233 32.1671 90.8437 29.3135 87.7358 29.3135C85.7099 29.3135 83.988 30.5401 83.131 32.5926C82.7793 33.4345 81.9838 33.9798 81.1042 33.9821C81.1031 33.9821 81.1009 33.9821 81.1009 33.9821C80.2221 33.9821 79.4267 33.4412 79.0719 32.5993C78.2299 30.6033 76.3458 29.3135 74.2725 29.3135C71.1795 29.3135 69.3032 32.1694 69.0476 34.9916C69.0401 35.0706 69.0292 35.1475 69.0153 35.2245C69.0153 35.2224 69.0153 35.2224 69.0153 35.2224Z" fill="#43525B"/>
</svg>
