<svg width="286" height="232" viewBox="0 0 286 232" fill="none" xmlns="http://www.w3.org/2000/svg">
<g clip-path="url(#clip0_41_532)">
<path d="M443.858 341.717L439.306 338.87C433.409 335.28 431.324 333.84 430.547 330.072C429.133 323.218 431.301 317.905 434.062 311.166C437.335 303.151 441.047 294.092 438.62 281.418L438.627 281.416L438.493 280.766L438.485 280.768C435.701 268.167 428.705 261.309 422.53 255.25C417.328 250.153 413.232 246.117 411.821 239.276C410.409 232.429 412.577 227.116 415.338 220.377C418.611 212.362 422.322 203.295 419.895 190.629L419.903 190.627L419.767 189.97L419.76 189.971C416.975 177.371 409.981 170.52 403.805 164.454C398.603 159.357 394.508 155.328 393.097 148.488C391.684 141.633 393.851 136.32 396.612 129.58C399.885 121.566 403.598 112.507 401.17 99.8324L401.177 99.8309L401.043 99.181L401.036 99.1825C398.251 86.5821 391.256 79.7236 385.081 73.665C379.878 68.5679 375.784 64.5388 374.372 57.6917C373.594 53.918 374.941 51.7768 378.937 46.15L381.989 41.7312C389.076 31.0002 385.838 15.3745 375.102 8.33753C369.73 4.79927 363.298 3.5665 356.994 4.86662C350.683 6.16825 345.264 9.84516 341.716 15.223L338.872 19.7852C335.281 25.6786 333.84 27.7605 330.072 28.5375L330.074 28.5448C323.22 29.9584 317.905 27.7833 311.166 25.0259C303.151 21.7497 294.093 18.0444 281.419 20.4714L281.417 20.4611L280.767 20.5952L280.769 20.6054C268.169 23.391 261.309 30.3791 255.251 36.5577C250.153 41.7563 246.118 45.8596 239.278 47.2704C232.431 48.6825 227.116 46.5073 220.377 43.75C212.362 40.4738 203.297 36.77 190.63 39.1955L190.628 39.1852L189.971 39.3208L189.973 39.331C177.373 42.1166 170.52 49.1032 164.455 55.2833C159.357 60.4818 155.337 64.5821 148.482 65.9958C141.634 67.408 136.327 65.2314 129.582 62.4754C121.567 59.1992 112.509 55.4939 99.8346 57.9209L99.8325 57.9106L99.1818 58.0448L99.184 58.0551C86.5837 60.8407 79.7237 67.8287 73.6659 74.0074C68.568 79.2059 64.5404 83.3077 57.6933 84.7198L57.6911 84.7089C53.9173 85.4871 51.7784 84.1511 46.1553 80.1542L41.732 77.0986C31.0003 70.0088 15.3702 73.243 8.33688 83.9783C4.80303 89.3533 3.56736 95.7895 4.86672 102.09C6.16835 108.401 9.84968 113.823 15.2225 117.365L19.7831 120.221C25.6802 123.811 27.7637 125.241 28.542 129.015C29.9549 135.865 27.7878 141.182 25.0268 147.922C21.7527 155.929 18.0482 164.994 20.4693 177.67L20.462 177.671L20.596 178.321L20.6034 178.319C23.3948 190.919 30.3821 197.771 36.5586 203.837C41.7608 208.934 45.8538 212.956 47.2675 219.811C48.6797 226.658 46.5119 231.971 43.7508 238.71C40.4783 246.725 36.7723 255.783 39.1934 268.458L39.1861 268.46L39.3216 269.117L39.3289 269.116C42.1189 281.707 49.1077 288.567 55.2842 294.633C60.4863 299.73 64.5808 303.759 65.9915 310.599C67.4037 317.447 65.2374 322.767 62.4764 329.507C59.2023 337.514 55.4979 346.579 57.919 359.255L57.9116 359.256L58.0457 359.906L58.053 359.905C60.8444 372.504 67.8317 379.356 74.0082 385.422C79.2104 390.519 83.3034 394.541 84.717 401.395L84.7097 401.397C85.4866 405.164 84.1483 407.31 80.1529 412.941L77.0979 417.349C70.0133 428.087 73.2437 443.717 83.9776 450.744C89.3505 454.286 95.7904 455.521 102.094 454.221C108.398 452.92 113.824 449.238 117.365 443.858L120.227 439.311C123.808 433.409 125.241 431.324 129.016 430.546C135.863 429.134 141.183 431.3 147.922 434.061C155.93 437.335 164.996 441.046 177.67 438.619L177.672 438.626L178.323 438.492L178.321 438.484C190.921 435.7 197.773 428.706 203.839 422.529C208.943 417.326 212.957 413.234 219.805 411.822C226.659 410.408 231.972 412.576 238.711 415.337C246.726 418.61 255.785 422.322 268.459 419.895L268.461 419.902L269.118 419.766L269.117 419.759C281.71 416.976 288.568 409.98 294.634 403.804C299.731 398.602 303.76 394.507 310.6 393.097C317.448 391.684 322.768 393.851 329.508 396.612C337.515 399.886 346.581 403.597 359.256 401.169L359.257 401.176L359.907 401.042L359.905 401.035C372.506 398.25 379.357 391.256 385.423 385.08C390.52 379.878 394.542 375.785 401.396 374.371C405.163 373.594 407.311 374.94 412.943 378.942L417.35 381.99C428.088 389.075 443.717 385.837 450.743 375.103C454.285 369.73 455.521 363.298 454.221 356.994C452.92 350.682 449.239 345.264 443.858 341.717Z" fill="#43525B"/>
<path d="M440.127 368.141C436.811 373.199 429.431 374.736 424.357 371.378L420.289 368.566C414.345 364.352 408.209 359.999 398.831 361.933L398.828 361.919C388.457 364.058 382.256 370.374 376.79 375.958C371.389 381.453 366.29 386.648 357.019 388.664C347.692 390.483 340.962 387.728 333.834 384.817C326.605 381.852 318.411 378.504 308.032 380.644C297.662 382.783 291.453 389.101 285.995 394.683C280.593 400.179 275.502 405.372 266.223 407.389C256.904 409.208 250.166 406.454 243.045 403.541C235.802 400.579 227.614 397.229 217.237 399.37C206.873 401.507 200.664 407.825 195.199 413.409C189.804 418.903 184.713 424.096 175.434 426.113C166.107 427.933 159.369 425.179 152.256 422.265C145.027 419.3 136.826 415.954 126.448 418.094L126.449 418.101C117.086 420.032 113.16 426.468 109.368 432.69L106.752 436.88C105.077 439.416 102.514 441.152 99.5265 441.768C96.5461 442.383 93.5056 441.803 90.946 440.126C85.881 436.811 84.3509 429.429 87.7088 424.355L90.521 420.287C94.735 414.344 99.0952 408.206 97.1611 398.828L97.1684 398.827C95.0295 388.455 88.713 382.254 83.1267 376.775C77.6342 371.387 72.4327 366.29 70.4235 357.018C68.5971 347.692 71.359 340.96 74.2702 333.832C77.2356 326.603 80.5833 318.409 78.4428 308.03C76.3041 297.66 69.986 291.451 64.4041 285.993C58.9086 280.591 53.7087 275.501 51.6979 266.221C49.8731 256.903 52.6334 250.164 55.5462 243.043C58.51 235.807 61.8577 227.613 59.7189 217.242C57.58 206.871 51.262 200.663 45.6786 195.197C40.1845 189.802 34.9831 184.705 32.9738 175.432C31.1475 166.107 33.9078 159.368 36.8221 152.254C39.786 145.018 43.133 136.821 40.9934 126.446L40.986 126.447C39.0542 117.08 32.6193 113.158 26.3984 109.37L22.207 106.751C19.6634 105.077 17.9343 102.509 17.3181 99.5211C16.7042 96.5444 17.2769 93.5053 18.9616 90.9443C22.277 85.8829 29.6583 84.3492 34.7396 87.7055L38.7994 90.5156C44.7354 94.7312 50.8883 99.0919 60.259 97.1594L60.2598 97.163C70.6383 95.0226 76.846 88.7047 82.3124 83.1249C87.6918 77.6303 92.7898 72.4325 102.07 70.4254C111.395 68.5954 118.126 71.3535 125.255 74.2685C132.483 77.2302 140.677 80.5779 151.049 78.4389C161.427 76.2985 167.621 69.9835 173.101 64.4009C178.488 58.9047 183.586 53.7069 192.867 51.6998C202.184 49.8713 208.915 52.6295 216.052 55.5429C223.272 58.5061 231.474 61.8523 241.844 59.7135C252.223 57.5731 258.424 51.2566 263.89 45.6768C269.284 40.1791 274.375 34.9828 283.656 32.9758C292.973 31.1472 299.711 33.9039 306.847 36.8175C314.075 39.7792 322.263 43.1282 332.64 40.9879L332.64 40.9843C342.01 39.0517 345.922 32.619 349.72 26.3922L352.344 22.2037C354.01 19.6617 356.574 17.9296 359.562 17.3135C362.542 16.6988 365.582 17.2752 368.143 18.9598C373.201 22.276 374.739 29.6602 371.382 34.7378L368.569 38.802C364.353 44.7381 360.003 50.8851 361.935 60.2558L361.921 60.2588C364.059 70.63 370.377 76.8377 375.962 82.3107C381.453 87.6908 386.648 92.7894 388.667 102.075C390.484 111.387 387.73 118.125 384.819 125.254C381.853 132.482 378.506 140.676 380.646 151.055C382.785 161.426 389.101 167.627 394.686 173.1C400.179 178.487 405.374 183.586 407.391 192.864C409.209 202.184 406.454 208.914 403.544 216.05C400.577 223.271 397.231 231.473 399.37 241.843C401.51 252.222 407.827 258.423 413.41 263.889C418.904 269.283 424.098 274.375 426.115 283.653C427.933 292.973 425.18 299.71 422.267 306.831C419.304 314.074 415.955 322.262 418.096 332.639L418.103 332.638C420.035 342.009 426.47 345.928 432.691 349.719L436.884 352.342C439.418 354.01 441.154 356.573 441.77 359.561C442.385 362.541 441.805 365.582 440.127 368.141Z" fill="white"/>
<path d="M385.182 341.747L130.998 394.169C124.744 395.459 118.631 391.436 117.342 385.183L64.9193 130.999C63.631 124.752 67.6523 118.633 73.9065 117.343L328.09 64.9205C334.345 63.6307 340.458 67.66 341.746 73.9069L394.169 328.091C395.458 334.344 391.436 340.457 385.182 341.747Z" fill="#C0DFCF"/>
<path d="M386.692 349.065L132.508 401.487C122.23 403.607 112.142 396.97 110.022 386.691L57.6002 132.508C55.4804 122.229 62.1187 112.142 72.397 110.023L326.581 57.6005C336.859 55.4807 346.946 62.1183 349.066 72.3966L401.488 326.58C403.608 336.859 396.97 346.945 386.692 349.065ZM75.416 124.661C73.207 125.117 71.7831 127.28 72.2385 129.489L124.661 383.672C125.116 385.881 127.28 387.305 129.489 386.849L383.673 334.427C385.881 333.971 387.305 331.808 386.849 329.599L334.427 75.4155C333.972 73.2074 331.808 71.7834 329.6 72.2388L75.416 124.661Z" fill="#43525B"/>
<path d="M150.641 200.832L152.566 209.798L122.813 216.186L113.053 170.727L123.328 168.52L131.163 205.014L150.641 200.832Z" fill="#43525B"/>
<path d="M223.246 194.623L195.643 152.994L206.679 150.625L226.431 182.25L231.539 145.287L242.125 143.014L233.833 192.35L223.246 194.623Z" fill="#43525B"/>
<path d="M259.238 148.245L261.356 158.11L283.301 153.398L285.128 161.911L263.184 166.623L265.345 176.686L290.416 171.303L292.243 179.808L256.917 187.393L247.156 141.934L281.761 134.504L283.588 143.017L259.238 148.245Z" fill="#43525B"/>
<path d="M169.7 166.958C170.768 161.776 174.773 157.452 180.265 156.273C187.625 154.693 194.267 159.67 196.505 166.799C196.505 166.799 197.25 168.513 197.163 171.951C197.023 176.608 195.329 181.08 192.569 184.826L177.738 204.393L156.521 192.566C152.431 190.291 149.055 186.907 147.022 182.716C145.52 179.618 145.511 177.748 145.511 177.748C144.618 170.33 148.632 163.065 156.035 161.475C161.498 160.302 166.6 162.671 169.7 166.958Z" fill="#FFA8A6"/>
</g>
<defs>
<clipPath id="clip0_41_532">
<rect width="388.606" height="388.606" fill="white" transform="translate(0 78.4922) rotate(-11.6531)"/>
</clipPath>
</defs>
</svg>
