<svg width="105" height="110" viewBox="0 0 105 110" fill="none" xmlns="http://www.w3.org/2000/svg">
<path d="M60.3165 43.9742C53.1101 37.3019 43.4063 35.901 36.532 35.901C31.6613 35.901 26.3126 36.6076 21.4744 37.8883L20.0868 34.5718C26.1368 30.3838 33.1852 28.1704 40.4742 28.1704C49.6952 28.1704 58.5481 31.7791 65.4123 38.3278L66.7707 39.6227L61.545 45.115L60.3165 43.9742Z" fill="#C0DFCF"/>
<path d="M68.4127 87.2464C69.894 81.0513 73.8568 59.8037 62.6307 46.408L61.5452 45.113L66.7709 39.6226L68.0031 41.0486C74.2357 48.259 77.666 57.5688 77.666 67.2618C77.666 74.9278 75.5567 82.3427 71.5666 88.7029L68.4127 87.2464Z" fill="#C0DFCF"/>
<path d="M72.4369 35.083L71.942 34.6185L71.1126 34.0822L71.1023 33.0706L71.0955 18.9009L71.1126 18.7681C71.0477 16.8203 71.7202 15.0051 73.0035 13.6527C74.188 12.4044 75.8707 11.6904 77.6217 11.6904C79.3727 11.6904 81.0553 12.4078 82.2466 13.6562C84.7929 16.336 84.7964 20.6928 82.25 23.367C83.4345 22.1223 85.1206 21.4067 86.8682 21.4049C88.6192 21.4049 90.302 22.1204 91.4863 23.367C92.7219 24.6657 93.4012 26.3911 93.4012 28.2225C93.4012 30.0538 92.7219 31.7792 91.4863 33.0779C90.2508 34.3818 88.5988 35.0724 86.7112 35.0724L86.5815 35.0904L72.4369 35.083Z" fill="#FFA8A6"/>
<path d="M17.212 107.66C16.2784 107.66 15.5037 106.885 15.467 105.896L15.0224 94.1604L2.81571 94.6374C1.80193 94.6697 1.03998 93.8832 1.00416 92.8697C0.96833 91.8564 1.72189 91.0035 2.68604 90.9658L16.6344 90.4205C17.6276 90.3955 18.4075 91.1712 18.4451 92.1837L18.9587 105.751C18.9972 106.764 18.2471 107.618 17.2821 107.658C17.259 107.659 17.2351 107.66 17.212 107.66Z" fill="#43525B"/>
<path d="M25.4721 98.9745C24.5386 98.9745 23.7639 98.1998 23.7272 97.2106L23.2843 85.4703L11.0793 85.9447C10.0921 86.0093 9.3036 85.1896 9.26777 84.1771C9.23282 83.1628 9.98551 82.3108 10.9497 82.2731L24.8963 81.7315C25.8776 81.6839 26.6694 82.4838 26.707 83.4945L27.219 97.0653C27.2575 98.0788 26.5065 98.9334 25.5422 98.9729C25.519 98.9738 25.4952 98.9745 25.4721 98.9745Z" fill="#43525B"/>
<path d="M11.6664 99.3747C11.2192 99.3747 10.7721 99.1954 10.4307 98.8367C9.74805 98.1191 9.74805 96.9569 10.4307 96.2394L70.5152 33.0952C71.1978 32.3778 72.3037 32.3778 72.9865 33.0952C73.6691 33.8126 73.6691 34.975 72.9865 35.6924L12.9019 98.8367C12.5606 99.1954 12.1134 99.3747 11.6664 99.3747Z" fill="#43525B"/>
<path d="M66.7708 96.7393C66.5636 96.7393 66.3528 96.6998 66.148 96.6183L27.9186 81.297C27.4518 81.1095 27.0833 80.7212 26.9066 80.2297L12.547 40.2736C12.2057 39.3248 12.6613 38.2649 13.5641 37.9061C14.4669 37.5491 15.4756 38.0254 15.8169 38.9751L29.8983 78.159L67.3939 93.1852C68.2958 93.5466 68.7481 94.6084 68.4041 95.5563C68.1378 96.2882 67.4749 96.7393 66.7708 96.7393Z" fill="#43525B"/>
<path d="M66.7709 96.7363C66.3238 96.7363 65.8758 96.5569 65.5353 96.1982C64.8527 95.4808 64.8527 94.3176 65.5353 93.6011C72.233 86.5646 75.9218 77.2107 75.9227 67.2613C75.9235 57.3113 72.2356 47.9574 65.5386 40.9236C58.8436 33.8845 49.9435 30.0083 40.4777 30.0083C31.0119 30.0083 22.1118 33.8845 15.4176 40.9227C14.7366 41.6401 13.629 41.6392 12.9463 40.9236C12.2637 40.2062 12.2637 39.043 12.9463 38.3256C20.2993 30.5931 30.0774 26.335 40.4768 26.335H40.4777C50.8779 26.335 60.6552 30.5931 68.0099 38.3256C75.3673 46.0535 79.4187 56.3301 79.4178 67.2613C79.417 78.1928 75.3646 88.4694 68.0066 96.1982C67.6651 96.5569 67.2181 96.7363 66.7709 96.7363Z" fill="#43525B"/>
<path d="M67.6233 95.1514L64.6145 93.2807C66.8324 89.3401 74.2493 61.1269 60.2822 46.4468C46.2914 31.7445 19.4734 39.5585 15.7299 41.8955L13.9447 38.737C18.6233 35.8177 47.3008 27.612 62.7535 43.8498C78.1796 60.0633 70.3932 90.228 67.6233 95.1514Z" fill="#43525B"/>
<path d="M7.74968 46.0939C3.79453 46.0939 0.580017 42.7147 0.580017 38.5607C0.580017 34.4067 3.79541 31.0273 7.74793 31.0273C8.71295 31.0273 9.49552 31.8498 9.49552 32.864C9.49552 33.8784 8.71295 34.7007 7.74793 34.7007C5.723 34.7007 4.0752 36.4325 4.0752 38.5607C4.0752 40.6889 5.72212 42.4205 7.74618 42.4205C8.65668 42.4189 9.50828 41.9865 10.2763 41.1354C10.3054 41.0996 10.3359 41.0654 10.3676 41.0314L12.9463 38.323C13.6289 37.6073 14.7357 37.6064 15.4184 38.324C16.1002 39.0414 16.1002 40.2045 15.4176 40.922L12.8918 43.5739C11.4453 45.2178 9.66696 46.0895 7.74968 46.0939Z" fill="#43525B"/>
<path d="M67.927 109.159C67.9211 109.157 67.9143 109.158 67.9109 109.159C66.0805 109.159 64.3474 108.4 63.0341 107.022C61.6731 105.593 60.9239 103.68 60.9239 101.633C60.9197 99.6367 61.6408 97.7667 62.9607 96.3418C63 96.288 63.0418 96.2368 63.0879 96.1876L65.5898 93.4827C66.2605 92.7535 67.3681 92.7392 68.0611 93.4469C68.7531 94.1534 68.7685 95.3166 68.0951 96.0439L65.7555 98.574C65.699 98.6537 65.6359 98.7283 65.566 98.799C64.8244 99.5452 64.4166 100.55 64.4191 101.629C64.4191 102.698 64.8048 103.689 65.5045 104.423C66.1572 105.108 67.0132 105.486 67.9151 105.486C67.9178 105.486 67.9202 105.486 67.9228 105.486C68.8333 105.486 69.6926 105.108 70.3462 104.422C71.0451 103.689 71.4299 102.698 71.4299 101.633C71.4299 100.619 72.2125 99.7963 73.1775 99.7963C74.1427 99.7963 74.9251 100.619 74.9251 101.633C74.9251 103.68 74.1759 105.593 72.8166 107.021C71.5024 108.4 69.7669 109.159 67.927 109.159Z" fill="#43525B"/>
<path d="M86.6429 36.925C86.6429 36.925 86.6429 36.925 86.642 36.925L71.1014 36.9195C70.1373 36.9195 69.3547 36.0972 69.3547 35.0837L69.3479 18.7544C69.3479 18.6791 69.3523 18.6048 69.3608 18.5311C69.3556 16.1879 70.203 14.0049 71.7653 12.3565C73.3312 10.7099 75.4108 9.80518 77.6217 9.80518C79.8352 9.80518 81.9164 10.7118 83.4822 12.3574C85.3562 14.3295 86.1429 17.0164 85.8425 19.5866C88.3428 19.2647 90.9145 20.1687 92.7228 22.07C94.2886 23.7157 95.1505 25.9039 95.1488 28.2303C95.147 30.5522 94.2853 32.7349 92.7203 34.3744C91.1758 36.0085 89.0953 36.9116 86.8673 36.9116L86.8587 36.9107C86.788 36.9204 86.7154 36.925 86.6429 36.925ZM72.849 33.247L86.3928 33.2516C86.4911 33.2364 86.59 33.2301 86.6959 33.2345C86.7001 33.2345 86.7044 33.2345 86.7086 33.2345C88.1644 33.2345 89.3599 32.7171 90.2464 31.7789C91.1552 30.8275 91.6527 29.5674 91.6536 28.2275C91.6545 26.8833 91.1561 25.6187 90.2508 24.6673C88.4435 22.7678 85.2913 22.7687 83.4857 24.6664C82.8029 25.3819 81.6962 25.3829 81.0136 24.6655C80.6731 24.3068 80.5024 23.8358 80.5024 23.366C80.5024 22.896 80.6732 22.426 81.0145 22.0673C82.879 20.1095 82.8772 16.9187 81.0103 14.9538C79.2012 13.0543 76.0482 13.0499 74.2392 14.951C73.3022 15.9393 72.8116 17.273 72.8593 18.7034C72.8628 18.8119 72.8576 18.9186 72.8431 19.0235L72.849 33.247Z" fill="#43525B"/>
<path d="M102.992 27.0689H99.7909C98.8257 27.0689 98.0433 26.2464 98.0433 25.2322C98.0433 24.2178 98.8257 23.3955 99.7909 23.3955H102.992C103.957 23.3955 104.74 24.2178 104.74 25.2322C104.74 26.2464 103.957 27.0689 102.992 27.0689Z" fill="#43525B"/>
<path d="M80.4718 6.76103C79.5075 6.76103 78.7251 5.9404 78.7242 4.92599L78.7207 1.56118C78.7198 0.546779 79.5015 -0.276425 80.4665 -0.277344C80.4674 -0.277344 80.4674 -0.277344 80.4674 -0.277344C81.4326 -0.277344 82.215 0.543289 82.2159 1.55751L82.2194 4.92251C82.2202 5.93673 81.4386 6.76011 80.4734 6.76103C80.4734 6.76103 80.4727 6.76103 80.4718 6.76103Z" fill="#43525B"/>
<path d="M94.135 12.7072C93.6888 12.7072 93.2416 12.5289 92.9003 12.1709C92.2177 11.4544 92.216 10.2913 92.8977 9.57292L95.1573 7.19276C95.8373 6.47535 96.9441 6.47259 97.6293 7.19C98.3121 7.90668 98.3137 9.06985 97.6319 9.78818L95.3723 12.1683C95.031 12.5271 94.5831 12.7072 94.135 12.7072Z" fill="#43525B"/>
<path d="M66.8084 12.7096C66.3605 12.7096 65.9133 12.5303 65.572 12.1707L63.3091 9.7887C62.6272 9.07129 62.628 7.90811 63.3106 7.19144C63.9934 6.47586 65.0993 6.47403 65.7819 7.19327L68.0449 9.57527C68.7268 10.2927 68.7259 11.4559 68.0431 12.1724C67.7018 12.5303 67.2556 12.7096 66.8084 12.7096Z" fill="#43525B"/>
<path d="M96.3946 43.8067C95.9465 43.8067 95.4995 43.6272 95.1582 43.2676L92.8986 40.8893C92.2168 40.1719 92.2177 39.0087 92.9003 38.292C93.5829 37.5764 94.6888 37.5746 95.3714 38.2939L97.631 40.6722C98.3128 41.3898 98.3121 42.553 97.6293 43.2694C97.288 43.6272 96.8418 43.8067 96.3946 43.8067Z" fill="#43525B"/>
</svg>
