<svg width="110" height="110" viewBox="0 0 110 110" fill="none" xmlns="http://www.w3.org/2000/svg">
<g clip-path="url(#clip0_13_2327)">
<path d="M55 110C85.3757 110 110 85.3757 110 55C110 24.6243 85.3757 0 55 0C24.6243 0 0 24.6243 0 55C0 85.3757 24.6243 110 55 110Z" fill="#C0DFCF"/>
<path d="M55 21.916C53.9527 21.916 53.1035 21.0677 53.1035 20.0195V14.2242C53.1035 13.176 53.9527 12.3276 55 12.3276C56.0473 12.3276 56.8966 13.176 56.8966 14.2242V20.0195C56.8966 21.0677 56.0473 21.916 55 21.916Z" fill="#43525B"/>
<path d="M55 97.6726C53.9527 97.6726 53.1035 96.8243 53.1035 95.7761V89.9791C53.1035 88.9308 53.9527 88.0825 55 88.0825C56.0473 88.0825 56.8966 88.9308 56.8966 89.9791V95.7761C56.8966 96.8243 56.0473 97.6726 55 97.6726Z" fill="#43525B"/>
<path d="M95.7759 56.8929H89.9825C88.9352 56.8929 88.0859 56.0446 88.0859 54.9962C88.0859 53.9479 88.9352 53.0996 89.9825 53.0996H95.7759C96.8232 53.0996 97.6724 53.9479 97.6724 54.9962C97.6724 56.0446 96.8232 56.8929 95.7759 56.8929Z" fill="#43525B"/>
<path d="M20.0185 56.8929H14.2241C13.1769 56.8929 12.3276 56.0446 12.3276 54.9962C12.3276 53.9479 13.1769 53.0996 14.2241 53.0996H20.0185C21.0657 53.0996 21.915 53.9479 21.915 54.9962C21.915 56.0446 21.0657 56.8929 20.0185 56.8929Z" fill="#43525B"/>
<path d="M79.7349 32.1582C79.2495 32.1582 78.7634 31.9729 78.394 31.6025C77.653 30.8617 77.653 29.6613 78.394 28.9205L82.4926 24.8238C83.2334 24.0828 84.4355 24.0828 85.1745 24.8238C85.9153 25.5646 85.9153 26.7647 85.1745 27.5055L81.0757 31.6025C80.7053 31.9729 80.2202 32.1582 79.7349 32.1582Z" fill="#43525B"/>
<path d="M26.1665 85.7302C25.6814 85.7302 25.1961 85.5449 24.8257 85.1745C24.0849 84.4337 24.0849 83.2336 24.8257 82.4926L28.9243 78.394C29.6651 77.6532 30.8652 77.6532 31.6062 78.394C32.347 79.1348 32.347 80.3349 31.6062 81.0759L27.5076 85.1745C27.137 85.5451 26.6517 85.7302 26.1665 85.7302Z" fill="#43525B"/>
<path d="M83.8334 85.7266C83.3483 85.7266 82.8629 85.5413 82.4935 85.1709L78.3947 81.0759C77.6529 80.337 77.6529 79.135 78.3929 78.394C79.1337 77.6532 80.3358 77.6532 81.0747 78.394L85.1735 82.489C85.9152 83.2279 85.9152 84.4299 85.1752 85.1709C84.8048 85.5413 84.3187 85.7266 83.8334 85.7266Z" fill="#43525B"/>
<path d="M30.2652 32.1582C29.7798 32.1582 29.2947 31.9729 28.9243 31.6025L24.8257 27.5055C24.0849 26.7647 24.0849 25.5646 24.8257 24.8238C25.5648 24.0828 26.7666 24.0828 27.5076 24.8238L31.6062 28.9205C32.347 29.6613 32.347 30.8617 31.6062 31.6025C31.2366 31.9729 30.7505 32.1582 30.2652 32.1582Z" fill="#43525B"/>
<path d="M55 48.814C55 41.4501 60.9675 35.4771 68.3443 35.4771C75.714 35.4771 81.6889 41.4501 81.6889 48.814C81.6889 52.6829 80.0182 56.1259 77.4011 58.5708L77.4345 58.5782L55 81.0165L32.5536 58.5784C32.5619 58.571 32.5712 58.571 32.5805 58.5617C29.9634 56.1206 28.3094 52.6831 28.3094 48.8142C28.3094 41.4502 34.2788 35.4772 41.6557 35.4772C49.0206 35.477 55 41.4501 55 48.814Z" fill="#FFA8A6"/>
<path d="M55 82.9129C54.5147 82.9129 54.0295 82.7278 53.6591 82.3572L31.2125 59.9191C31.1421 59.8488 31.0773 59.7727 31.0191 59.6932C28.0455 56.7892 26.4129 52.9406 26.4129 48.814C26.4129 40.4148 33.2509 33.5806 41.6557 33.5806C47.3935 33.5806 52.4006 36.766 55 41.4594C57.5994 36.766 62.6065 33.5806 68.3443 33.5806C76.7483 33.5806 83.5854 40.4148 83.5854 48.814C83.5854 52.9349 81.9453 56.7892 78.9588 59.7061C78.9032 59.7803 78.8431 59.8524 78.7754 59.9191L56.3409 82.3572C55.9705 82.7276 55.4853 82.9129 55 82.9129ZM34.1398 57.4817L55 78.3344L75.8528 57.4779C75.926 57.3722 76.0102 57.2742 76.1065 57.1852C78.4837 54.9646 79.7923 51.9921 79.7923 48.8139C79.7923 42.5055 74.6564 37.3735 68.3443 37.3735C62.0324 37.3735 56.8966 42.5055 56.8966 48.8139C56.8966 49.8621 56.0473 50.7104 55 50.7104C53.9527 50.7104 53.1035 49.8621 53.1035 48.8139C53.1035 42.5055 47.9676 37.3735 41.6557 37.3735C35.3419 37.3735 30.206 42.5055 30.206 48.8139C30.206 51.9995 31.5089 54.9684 33.8741 57.1742C33.9741 57.2687 34.0628 57.3705 34.1398 57.4817Z" fill="#43525B"/>
<path d="M36.1585 53.7295C35.1418 53.7295 34.2999 52.9239 34.2639 51.8996C34.111 47.5047 38.17 42.2465 43.6336 42.0557C44.6902 42.0075 45.5588 42.8373 45.596 43.8838C45.6322 44.9301 44.8135 45.8099 43.7671 45.8452C40.639 45.9562 37.9673 49.2493 38.0553 51.7662C38.0913 52.8128 37.2728 53.6924 36.2255 53.7277C36.2031 53.7295 36.1807 53.7295 36.1585 53.7295Z" fill="white"/>
</g>
<defs>
<clipPath id="clip0_13_2327">
<rect width="110" height="110" fill="white"/>
</clipPath>
</defs>
</svg>
