<svg width="120" height="120" viewBox="0 0 120 120" fill="none" xmlns="http://www.w3.org/2000/svg">
<path d="M60.1128 103.041C87.1011 103.041 108.979 83.8916 108.979 60.2703C108.979 36.6489 87.1011 17.5 60.1128 17.5C33.1245 17.5 11.2461 36.6489 11.2461 60.2703C11.2461 83.8916 33.1245 103.041 60.1128 103.041Z" fill="#C0DFCF"/>
<path d="M106.284 17.7397C105.333 15.8508 103.184 14.5273 100.672 14.5273C97.3038 14.5273 94.8684 16.9734 94.5592 19.8812C94.5592 19.8812 94.3955 20.6016 94.7548 21.9072C95.2549 23.6784 96.4238 25.2428 97.9814 26.453L106.284 32.7062L114.443 26.453C116.005 25.2428 117.167 23.6784 117.667 21.9072C118.022 20.6016 117.865 19.8812 117.865 19.8812C117.558 16.9734 115.125 14.5273 111.743 14.5273C109.24 14.5273 107.23 15.8508 106.284 17.7397Z" fill="#FFA8A6"/>
<path d="M106.283 34.5422C105.797 34.5422 105.309 34.3931 104.917 34.0984L96.6144 27.8451C94.6431 26.3126 93.3047 24.4199 92.7205 22.348C92.2839 20.7618 92.4441 19.7867 92.5032 19.524C92.8977 15.7106 96.4223 12.6934 100.671 12.6934C102.781 12.6934 104.765 13.4038 106.259 14.616C107.718 13.394 109.648 12.6934 111.743 12.6934C116 12.6934 119.529 15.7127 119.951 19.7131C119.979 19.7985 120.13 20.7659 119.705 22.3321C119.114 24.426 117.776 26.3205 115.832 27.8272L107.663 34.0865C107.269 34.389 106.776 34.5422 106.283 34.5422ZM100.671 16.3634C98.2858 16.3634 96.8407 18.2184 96.6451 20.0514C96.6258 20.1847 96.5623 20.6444 96.7918 21.4784C97.1693 22.8157 98.063 24.0657 99.3728 25.0826L106.271 30.2791L113.062 25.0747C114.358 24.0695 115.25 22.8198 115.632 21.4684C115.858 20.6385 115.795 20.1726 115.795 20.1688C115.584 18.2184 114.136 16.3634 111.743 16.3634C110.189 16.3634 108.865 17.1535 108.202 18.477C107.869 19.1439 107.117 19.5737 106.286 19.5757C106.284 19.5757 106.284 19.5757 106.284 19.5757C105.452 19.5757 104.701 19.1457 104.365 18.4791C103.718 17.1933 102.268 16.3634 100.671 16.3634Z" fill="#43525B"/>
<path d="M64.377 44.7347C65.8346 44.7347 67.4194 44.4223 69.0908 43.8052L70.0527 43.451L70.3733 42.5832C70.7759 42.1892 74.2889 38.7322 68.2085 31.9912L68.0858 31.8539L67.9356 31.7383C66.3986 30.5422 52.9005 19.6696 51.8771 6.82061L51.3359 0L47.6136 6.0105C47.493 6.20553 35.4548 25.7299 37.6446 30.4387L38.1834 31.5991L40.0024 31.7027C40.3321 31.7124 47.0061 32.0071 59.0715 43.0053C59.4084 43.3057 61.1685 44.7347 64.377 44.7347Z" fill="#CCCCCC"/>
<path d="M26.9093 117.87C28.2191 117.536 29.6153 116.182 30.2337 115.434C41.5738 103.2 46.8425 93.2346 47.4064 92.1382C50.1783 85.8788 54.1735 85.3214 54.9468 85.2717L55.1834 85.2458C82.5659 80.933 86.0929 59.906 86.2294 59.0126C87.9871 49.2503 94.8271 45.4411 100.255 43.9723L104.248 42.8895L101.039 40.5449C98.5744 38.7399 94.7361 36.4192 92.1757 35.4778C91.614 35.2708 90.9385 35.1674 90.1655 35.1674C83.6529 35.1674 71.7784 42.5353 71.2759 42.8497C68.9316 44.0717 66.5598 44.7345 64.3768 44.7345C60.9227 44.7324 59.174 43.1045 59.1037 43.0327C48.6594 33.5154 42.181 31.9869 40.4437 31.7442L39.9389 31.6745L39.4499 31.7998C39.3067 31.788 39.1635 31.7401 39.0224 31.6924L38.72 31.593L38.4017 31.5689C27.6232 30.7729 20.0579 27.3458 16.5084 25.3754L9.11349 21.2715L13.2929 28.0045C18.4205 36.272 35.0181 55.7862 48.2659 70.4226C43.9705 72.0705 41.1691 79.305 41.0508 79.6115L40.9963 79.7569L40.9667 79.904C40.1527 84.0518 26.2408 89.8872 6.34839 94.4309L6.13464 94.4807L5.93904 94.5642C4.59294 95.1293 3.61054 95.7065 3.01933 96.2798L1.60034 97.653L3.06474 98.9906C3.91534 99.7628 5.59582 100.483 6.79873 100.826C5.96186 101.626 5.35692 102.35 5.01137 102.973L3.86761 105.053L6.38472 105.737C7.12844 105.94 8.12667 106.048 9.26811 106.048C10.2186 106.048 10.9553 105.972 11.0101 105.968C10.6508 106.786 10.4552 107.433 10.3506 107.927L7.70358 109.284L11.5011 110.916C11.9422 111.103 12.5017 111.201 13.1635 111.201C14.6118 111.201 16.1081 110.733 16.1719 110.711C15.9309 113.245 16.5174 114.122 16.9769 114.562L17.6544 115.211L18.696 115.231H19.7238L19.8875 115.072C21.4064 114.705 22.8344 113.806 22.9073 113.758C23.3211 115.458 23.8988 116.664 24.64 117.337L25.5928 118.204L26.9093 117.87Z" fill="white"/>
<path d="M70.2971 44.648C69.6535 44.648 69.0122 44.4153 68.553 43.9614C67.7003 43.1175 67.79 41.8299 68.7519 41.0836C68.8087 41.0298 71.2953 38.7052 66.3824 33.258C64.585 31.8548 50.7525 20.6437 49.5713 7.12991C43.0962 17.6106 38.6643 28.0912 39.9911 29.9063C41.2588 30.0934 42.0411 31.0945 41.8262 32.2052C41.6113 33.3136 40.3357 34.0003 39.0702 33.8232C37.6002 33.6043 36.4336 32.8359 35.7856 31.6598C32.7499 26.1468 42.9451 9.1879 46.1412 4.12283C46.8733 2.94649 48.6085 0.182136 51.3007 0.582197C53.0801 0.858755 53.9498 2.35139 54.1715 3.65694C54.1955 3.79838 54.2022 3.94369 54.192 4.08696C53.1949 17.6703 69.4397 30.1849 69.6034 30.3104C69.7091 30.3899 69.8058 30.4796 69.8933 30.5752C77.8738 39.2883 72.09 43.9415 71.8399 44.1365C71.3966 44.4789 70.845 44.648 70.2971 44.648Z" fill="#43525B"/>
<path d="M26.1999 120C24.6934 120 22.8094 119.371 21.5236 116.735C20.6641 117.034 19.6885 117.263 18.7131 117.263C17.3409 117.263 16.1583 116.825 15.2909 115.995C14.5656 115.3 14.1073 114.379 13.9117 113.211C13.6661 113.229 13.4148 113.239 13.1624 113.239C10.6781 113.239 9.39791 112.271 8.76106 111.459C8.04831 110.55 7.78798 109.419 7.98008 108.042C5.18774 107.851 3.39922 107.001 2.65689 105.514C1.9758 104.149 2.45547 102.758 3.19012 101.627C1.65517 100.819 0.136049 99.5856 0.00868023 97.8421C-0.211829 94.8289 3.83022 93.1748 5.15817 92.6315C5.2867 92.5799 5.42082 92.5379 5.55844 92.5061C21.2085 88.9476 38.2495 82.8973 38.6723 79.5597C38.6905 79.4244 38.7224 79.2909 38.7701 79.1596C39.0384 78.4333 41.144 72.9521 44.895 69.9766C6.80558 27.7457 8.88843 23.9701 9.5786 22.7202C10.079 21.8147 11.0942 21.2734 12.296 21.2734C13.0863 21.2734 13.9583 21.5023 15.0406 21.9939C15.194 22.0636 15.3372 22.1471 15.4693 22.2445C15.5568 22.3083 24.8357 28.9677 40.1765 29.6682C40.92 29.6882 48.2513 30.1997 60.724 41.57C60.8001 41.6395 62.0018 42.6964 64.3758 42.6964C66.1324 42.6964 68.1016 42.1312 70.2313 41.0146C71.3727 40.2901 82.9903 33.1294 90.1667 33.1294C91.2502 33.1294 92.2291 33.2865 93.0785 33.5989C96.5461 34.8747 104.578 39.6632 106.073 42.4278C106.407 43.0447 106.365 43.7671 105.963 44.3502C105.56 44.9353 104.851 45.3056 104.071 45.3354C103.544 45.3592 90.9114 46.0997 88.5226 59.3746C88.4977 59.5517 84.7525 82.7382 55.4483 87.2738C55.3142 87.2958 55.1789 87.3058 55.0424 87.3058C54.9844 87.3117 51.9306 87.5605 49.6305 92.7629C49.3793 93.2724 44.1823 103.62 31.9679 116.805C31.6118 117.251 29.2323 120 26.1999 120ZM22.9186 111.714C23.2006 111.714 23.4837 111.758 23.7531 111.849C24.4943 112.098 25.0389 112.661 25.1994 113.34C25.6178 115.121 26.1089 115.728 26.291 115.901C26.7618 115.762 27.7144 115.016 28.259 114.343C40.1677 101.482 45.2725 91.316 45.3225 91.2145C48.4607 84.1153 53.4621 83.3233 54.7753 83.2395C80.622 79.1676 83.8828 59.0005 83.9133 58.7975C85.9384 47.5405 94.2349 43.4945 99.4705 42.0516C97.0966 40.326 93.5356 38.1885 91.273 37.3566C91.0036 37.2569 90.6203 37.2054 90.1667 37.2054C85.3381 37.2054 75.982 42.4117 72.7847 44.4179C69.7628 46.012 66.9862 46.7724 64.3758 46.7724C59.9199 46.7724 57.5619 44.587 57.3074 44.3384C46.2663 34.2757 39.9926 33.7442 39.9311 33.7383C28.1067 33.1989 19.6363 29.497 15.4408 27.1963C20.2173 34.807 35.4173 52.9482 50.0911 69.1567C50.5403 69.6523 50.7005 70.301 50.5254 70.914C50.3514 71.5291 49.8615 72.0366 49.1997 72.2893C46.6121 73.2804 44.1322 77.9774 43.2613 80.2542C41.756 87.855 15.425 94.4647 6.94343 96.403C5.61665 96.9604 5.03103 97.3864 4.78537 97.6132C5.25736 98.0151 6.48169 98.5963 7.51648 98.8849C8.27487 99.0979 8.857 99.6353 9.06051 100.308C9.26285 100.983 9.05702 101.701 8.51587 102.213C7.6995 102.985 7.31739 103.502 7.13903 103.807C7.52789 103.906 8.20991 104.008 9.26961 104.008C10.0722 104.008 10.693 103.948 10.7419 103.944C11.5492 103.855 12.3542 104.157 12.8522 104.72C13.3512 105.285 13.4786 106.036 13.1852 106.703C12.4485 108.372 12.5735 109.031 12.6101 109.155C12.6247 109.123 12.8192 109.163 13.1615 109.163C14.2018 109.163 15.3682 108.798 15.3796 108.794C16.1278 108.552 16.9646 108.661 17.6036 109.085C18.2381 109.509 18.5801 110.19 18.5098 110.886C18.3212 112.745 18.7259 113.241 18.7292 113.247C19.5285 113.187 20.9564 112.486 21.5397 112.11C21.9455 111.849 22.4298 111.714 22.9186 111.714Z" fill="#43525B"/>
<path d="M88.9032 43.0313C90.1585 43.0313 91.1761 42.1407 91.1761 41.042C91.1761 39.9434 90.1585 39.0527 88.9032 39.0527C87.648 39.0527 86.6304 39.9434 86.6304 41.042C86.6304 42.1407 87.648 43.0313 88.9032 43.0313Z" fill="#43525B"/>
</svg>
